<svg width="117" height="37" viewBox="0 0 117 37" fill="none" xmlns="http://www.w3.org/2000/svg">
<path d="M98.9247 36.2016C95.6049 36.2016 92.5508 35.4215 89.7622 33.8612C87.0068 32.301 84.8158 30.1431 83.1891 27.3878C81.5625 24.6324 80.7491 21.5284 80.7491 18.0759C80.7491 14.6234 81.5625 11.5195 83.1891 8.76408C84.8158 6.00871 87.0068 3.86748 89.7622 2.34041C92.5508 0.780136 95.6049 0 98.9247 0C102.244 0 105.282 0.780136 108.037 2.34041C110.793 3.86748 112.967 6.00871 114.561 8.76408C116.187 11.5195 117.001 14.6234 117.001 18.0759C117.001 21.5284 116.187 24.6324 114.561 27.3878C112.967 30.1431 110.776 32.301 107.988 33.8612C105.232 35.4215 102.211 36.2016 98.9247 36.2016ZM98.9247 25.8939C101.116 25.8939 102.809 25.1967 104.004 23.8024C105.199 22.375 105.796 20.4661 105.796 18.0759C105.796 15.6525 105.199 13.7437 104.004 12.3494C102.809 10.9219 101.116 10.2082 98.9247 10.2082C96.7004 10.2082 94.9908 10.9219 93.7957 12.3494C92.6006 13.7437 92.003 15.6525 92.003 18.0759C92.003 20.4661 92.6006 22.375 93.7957 23.8024C94.9908 25.1967 96.7004 25.8939 98.9247 25.8939Z" fill="white"/>
<path d="M76.752 0.597656V35.8532H65.6973V0.597656H76.752Z" fill="white"/>
<path d="M50.1274 35.8532L43.654 26.6907L38.276 35.8532H25.6776L37.2801 17.6777L25.1797 0.597656H38.276L44.5005 9.41153L49.6793 0.597656H62.2776L50.8744 18.4246L63.2238 35.8532H50.1274Z" fill="white"/>
<path d="M11.0547 9.41153V13.7438H22.0098V22.0597H11.0547V27.0393H23.5037V35.8532H0V0.597656H23.5037V9.41153H11.0547Z" fill="white"/>
</svg>
