<svg width="40" height="40" viewBox="0 0 40 40" fill="none" xmlns="http://www.w3.org/2000/svg">
<rect x="1" y="1" width="38" height="38" rx="19" stroke="#0C0B0B" stroke-width="2"/>
<path d="M24.8114 22.2761C24.8999 22.3646 24.8999 22.5089 24.8114 22.5974L20.16 27.2478C20.0715 27.3363 19.9283 27.3363 19.8397 27.2478L15.1893 22.5974C15.1449 22.553 15.123 22.4958 15.1229 22.4373C15.1229 22.3786 15.1449 22.3205 15.1893 22.2761L15.1893 22.2751C15.2779 22.1876 15.4214 22.188 15.5096 22.2761L18.9198 25.6873L19.7733 26.5408L19.7733 12.9119C19.7734 12.7869 19.8749 12.6854 19.9999 12.6853C20.125 12.6853 20.2264 12.7868 20.2264 12.9119L20.2264 26.5408L24.4911 22.2761C24.5796 22.1879 24.7229 22.1878 24.8114 22.2761Z" fill="#0C0B0B" stroke="#0C0B0B"/>
</svg>
