<svg width="315" height="36" viewBox="0 0 315 36" fill="none" xmlns="http://www.w3.org/2000/svg">
<path d="M214.136 22.2962C214.105 19.5494 213.444 18.6269 210.797 17.61C210.984 17.4871 211.179 17.3776 211.381 17.2823C213.402 16.5275 214.042 15.639 214.081 13.482C214.081 12.8687 214.081 12.258 214.081 11.6474C214.081 7.77102 212.805 6.50512 208.878 6.49988C203.163 6.49988 197.447 6.49988 191.73 6.49988C191.305 6.49988 190.881 6.53657 190.398 6.55754V29.5509C196.893 29.5509 203.304 29.6977 209.704 29.488C212.881 29.3858 214.105 27.6874 214.126 24.5082C214.144 23.7822 214.146 23.0405 214.136 22.2962ZM194.243 9.71575C194.636 9.68168 195.009 9.62139 195.378 9.61877C199.526 9.61877 203.676 9.61877 207.827 9.61877C209.547 9.61877 209.977 9.95425 210.029 11.6264C210.155 15.5578 210.192 16.0348 206.116 15.9614C202.622 15.8985 199.129 15.9483 195.632 15.9483H194.241L194.243 9.71575ZM210.265 24.4453C210.097 25.8999 209.515 26.4163 208.024 26.4267C203.495 26.4582 198.963 26.4267 194.277 26.4267V19.1615C194.602 19.1046 194.931 19.067 195.26 19.0489C199.454 19.0489 203.626 19.0331 207.812 19.0489C209.615 19.0489 210.171 19.5259 210.32 21.3055C210.404 22.347 210.385 23.3943 210.265 24.4322V24.4453Z" fill="black"/>
<path d="M52.0805 22.747V26.3377H69.3628V19.4551C68.9382 19.4368 68.4796 19.3975 68.0235 19.3975C63.7462 19.3975 59.4654 19.3975 55.181 19.3975C54.6568 19.3975 54.1327 19.3975 53.6085 19.3686C51.1841 19.269 50.01 18.4303 49.6954 16.0505C49.4291 14.0621 49.401 12.049 49.6116 10.0539C49.8737 7.62428 51.04 6.60737 53.543 6.55757C58.5227 6.45535 63.5025 6.44487 68.4822 6.55757C71.3652 6.62047 72.5132 7.99383 72.6442 10.8533C72.6809 11.6657 72.5604 12.1873 71.6168 12.3053C70.9459 12.3865 70.3064 12.6565 69.4808 12.8871V9.68171H52.969V16.1161H54.3895C58.7979 16.1161 63.2089 16.0951 67.6173 16.1161C71.8606 16.1397 73.0426 17.3348 73.0531 21.62C73.0752 23.1467 73.0025 24.6732 72.8356 26.1909C72.5735 28.4239 71.4465 29.5273 69.2239 29.5562C63.6361 29.6295 58.0457 29.6426 52.45 29.5562C49.7243 29.5116 47.6826 26.4504 48.5527 23.9448C48.6191 23.8178 48.7108 23.7058 48.8221 23.6156C48.9335 23.5255 49.0621 23.4591 49.2001 23.4206C50.1095 23.1664 51.0426 22.9829 52.0805 22.747Z" fill="black"/>
<path d="M306.409 11.0183C301.51 10.6724 296.565 10.9476 291.527 10.9476V29.5561C296.067 29.5561 300.53 29.7894 304.959 29.4984C310.673 29.1237 313.454 26.4582 314.091 21.1508C314.62 16.7188 312.217 11.4272 306.409 11.0183ZM304.495 26.6207C303.843 26.6815 303.187 26.7042 302.532 26.6888C300.05 26.6888 297.568 26.6888 294.911 26.6888C294.911 22.3826 294.911 18.2809 294.945 14.1818C294.945 13.9197 295.414 13.3955 295.655 13.3955C299.062 13.4872 302.469 13.4453 305.829 13.8516C309.035 14.2368 310.547 16.3152 310.576 19.5704C310.634 24.1046 308.933 26.0755 304.495 26.6207Z" fill="black"/>
<path d="M150.229 26.5997V22.3355C151.369 22.5137 152.375 22.6395 153.374 22.8597C153.496 22.9274 153.6 23.0244 153.675 23.142C153.751 23.2595 153.796 23.394 153.807 23.5333C153.738 24.8752 153.733 26.2433 153.453 27.5485C153.141 28.9927 151.88 29.5378 150.57 29.5561C145.852 29.6173 141.134 29.6173 136.417 29.5561C134.498 29.5299 133.426 28.5969 133.366 26.6731C133.232 22.401 133.193 18.1184 133.329 13.8463C133.397 11.6684 134.456 10.7537 136.598 10.7196C141.179 10.6427 145.762 10.6427 150.347 10.7196C152.596 10.7615 153.641 11.9567 153.814 14.3234C153.872 15.1463 153.814 15.9772 153.814 16.9443L150.234 17.5707V13.4401H136.849V26.5997H150.229Z" fill="black"/>
<path d="M240.811 10.7563H244.548V15.6364C244.548 19.0017 244.561 22.367 244.548 25.7322C244.524 28.4187 243.403 29.5614 240.721 29.5824C236.4 29.6164 232.072 29.6112 227.753 29.5955C224.474 29.5955 223.402 28.6362 223.337 25.326C223.24 20.5218 223.311 15.7124 223.311 10.8008H226.907V26.584H240.824L240.811 10.7563Z" fill="black"/>
<path d="M165.029 21.1744V29.5011H161.527V10.7641H164.992V18.7737C165.825 18.2495 166.405 17.8904 166.963 17.513C169.675 15.6784 172.435 13.925 175.069 11.9907C176.414 11.0053 177.764 10.4889 179.412 10.6803C180.057 10.7537 180.723 10.6934 181.509 10.9424L167.951 19.8273L183.058 29.3412C183.034 29.4251 183.011 29.509 182.985 29.6033C181.305 29.6033 179.622 29.64 177.942 29.5771C177.554 29.5771 177.156 29.2443 176.804 29.0084C173.282 26.6653 169.765 24.3161 166.253 21.9607C165.935 21.7353 165.608 21.5388 165.029 21.1744Z" fill="black"/>
<path d="M92.3923 13.3484V29.509H88.8671V13.3667H79.956V10.7982H101.408V13.3484H92.3923Z" fill="black"/>
<path d="M284.103 26.6521V29.5142H265.845V10.7825H269.326V26.6521H284.103Z" fill="black"/>
<path d="M256.745 29.5535H253.477V10.7851H256.745V29.5535Z" fill="black"/>
<path d="M123.934 29.6636L127.734 29.6007C124.044 23.4336 120.514 17.5261 116.988 11.6238C116.15 10.2268 113.403 10.2504 112.585 11.6474C110.076 15.9457 107.568 20.2448 105.061 24.5449L104.421 25.6378C103.685 26.8985 102.966 28.1723 102.214 29.488C102.938 29.5666 103.504 29.6295 103.962 29.6505C104.151 29.6505 104.322 29.6505 104.487 29.6505H105.621L106.334 28.3557C106.526 28.0386 106.738 27.6559 106.995 27.1894C107.257 26.7887 107.489 26.3691 107.689 25.934C107.734 25.8094 107.792 25.6906 107.865 25.5802H121.135L123.934 29.6636ZM114.706 13.4139L119.811 22.3853H109.658L114.706 13.4139Z" fill="black"/>
<path d="M22.249 0.157288H0V7.16563H22.249V0.157288Z" fill="#F36F2F"/>
<path d="M20.8625 19.691H0V26.1071H20.8625V19.691Z" fill="#F36F2F"/>
<path d="M32.0819 9.98309H10.7555V16.6586H32.0819V9.98309Z" fill="#F36F2F"/>
<path d="M32.0848 0H23.7817V8.30308H32.0848V0Z" fill="#F36F2F"/>
<path d="M32.0848 18.3229H23.7817V27.656H32.0848V18.3229Z" fill="#F36F2F"/>
<path d="M7.89157 8.68573H0.0733643V18.163H7.89157V8.68573Z" fill="#F36F2F"/>
<path d="M31.9651 29.2416H9.20764V35.5397H31.9651V29.2416Z" fill="#F36F2F"/>
<path d="M7.89157 27.7398H0.0733643V35.558H7.89157V27.7398Z" fill="#F36F2F"/>
</svg>
